<svg width="1440" height="1024" viewBox="0 0 1440 1024" fill="none" xmlns="http://www.w3.org/2000/svg">
<rect width="1440" height="1024" fill="white"/>
<g clip-path="url(#clip0_5831_32627)">
<path d="M1082 873.938H250V874.353H1082V873.938Z" fill="#EBEBEB"/>
<path d="M998.634 900.698H943.522V901.114H998.634V900.698Z" fill="#EBEBEB"/>
<path d="M704.638 895.479H683.189V895.894H704.638V895.479Z" fill="#EBEBEB"/>
<path d="M831.851 897.241H786.69V897.656H831.851V897.241Z" fill="#EBEBEB"/>
<path d="M941.858 885.257H848.491V885.672H941.858V885.257Z" fill="#EBEBEB"/>
<path d="M381.439 904.488H337.293V904.903H381.439V904.488Z" fill="#EBEBEB"/>
<path d="M434.521 904.488H396.249V904.903H434.521V904.488Z" fill="#EBEBEB"/>
<path d="M569.172 895.279H467.984V895.695H569.172V895.279Z" fill="#EBEBEB"/>
<path d="M644.385 799.806H323.066C317.825 799.806 313.565 795.551 313.565 790.315V339.159C313.565 333.923 317.825 329.668 323.066 329.668H644.385C649.626 329.668 653.886 333.923 653.886 339.159V790.315C653.886 795.551 649.626 799.806 644.385 799.806ZM323.066 330.084C318.058 330.084 313.981 334.156 313.981 339.159V790.315C313.981 795.318 318.058 799.39 323.066 799.39H644.385C649.393 799.39 653.47 795.318 653.47 790.315V339.159C653.47 334.156 649.393 330.084 644.385 330.084H323.066Z" fill="#EBEBEB"/>
<path d="M1004.31 799.806H682.989C677.748 799.806 673.488 795.551 673.488 790.315V339.159C673.488 333.923 677.748 329.668 682.989 329.668H1004.31C1009.55 329.668 1013.81 333.923 1013.81 339.159V790.315C1013.81 795.551 1009.55 799.806 1004.31 799.806ZM682.989 330.084C677.981 330.084 673.904 334.156 673.904 339.159V790.315C673.904 795.318 677.981 799.39 682.989 799.39H1004.31C1009.32 799.39 1013.39 795.318 1013.39 790.315V339.159C1013.39 334.156 1009.32 330.084 1004.31 330.084H682.989Z" fill="#EBEBEB"/>
<path d="M1027.19 561.072C1032.6 542.323 1031.61 523.241 1025.54 506.155C1030.28 499.373 1034.03 491.711 1036.46 483.317C1047.61 444.722 1027.29 404.531 990.63 390.054C983.558 339.491 947.632 295.311 895.366 280.252C854.032 268.351 811.65 277.294 779.435 300.846C771.364 292.419 761.048 285.92 749.034 282.463C712.792 272.025 674.936 292.901 664.486 329.103C662.739 335.153 661.89 341.253 661.823 347.27C625.348 354.617 594.115 381.46 583.1 419.64C573.199 453.93 581.968 489.184 603.384 514.565C600.621 519.568 598.342 524.937 596.694 530.655C584.83 571.759 608.559 614.676 649.709 626.527C663.271 630.433 677.032 630.45 689.812 627.292C704.938 648.118 726.852 664.275 753.51 671.954C787.838 681.843 822.965 675.693 850.92 657.975C863.434 687.046 873.717 730.661 851.586 773.428C932.024 765.549 990.131 688.475 978.283 617.851C1001.25 607.296 1019.65 587.234 1027.2 561.072H1027.19Z" fill="#EBEBEB"/>
<path d="M872.868 757.471C872.436 757.471 872.003 757.305 871.687 756.989C871.254 756.557 871.088 755.942 871.254 755.343C882.586 715.917 872.253 678.12 861.603 653.354L856.195 640.805L844.647 648.118C827.225 659.172 807.174 665.006 786.69 665.006C776.589 665.006 766.506 663.576 756.705 660.751C733.359 654.019 713.474 640.074 699.197 620.427L694.587 614.078L686.966 615.973C675.784 618.748 664.02 618.532 652.888 615.324C635.981 610.454 621.987 599.301 613.467 583.91C604.964 568.518 602.968 550.75 607.843 533.846C609.208 529.125 611.121 524.521 613.534 520.166L617.411 513.152L612.236 507.036C592.501 483.649 585.762 452.168 594.232 422.831C603.716 390.004 630.474 365.404 664.07 358.639L673.305 356.778L673.405 347.37C673.455 342.25 674.203 337.181 675.618 332.294C682.573 308.193 704.938 291.372 730.014 291.372C735.306 291.372 740.597 292.12 745.739 293.599C755.34 296.375 764.059 301.644 770.948 308.841L778.004 316.221L786.241 310.204C807.074 294.979 832.65 286.602 858.259 286.602C869.64 286.602 881.005 288.214 892.054 291.405C938.23 304.703 972.359 344.046 979.015 391.633L979.947 398.348L986.27 400.841C1017.89 413.324 1034.63 447.381 1025.19 480.059C1023.18 487.007 1020.07 493.522 1015.92 499.456L1012.49 504.36L1014.49 510.011C1020 525.485 1020.48 542.024 1015.92 557.814C1009.6 579.688 994.074 597.706 973.324 607.246L965.237 610.97L966.701 619.746C971.76 649.88 962.675 682.791 941.775 710.05C924.369 732.755 900.042 749.559 873.251 757.371C873.101 757.421 872.935 757.438 872.785 757.438L872.868 757.471ZM856.977 636.716C857.144 636.716 857.31 636.733 857.476 636.783C857.942 636.932 858.325 637.265 858.508 637.713L864.682 652.041C875.298 676.691 885.565 714.022 875.281 753.316C900.258 745.354 922.872 729.364 939.229 708.039C959.563 681.511 968.415 649.531 963.523 620.311L961.843 610.288C961.726 609.54 962.109 608.825 962.791 608.51L972.043 604.254C991.928 595.113 1006.79 577.86 1012.84 556.917C1017.2 541.791 1016.74 525.967 1011.46 511.141L1009.17 504.692C1008.98 504.193 1009.07 503.628 1009.37 503.179L1013.29 497.561C1017.24 491.927 1020.2 485.727 1022.1 479.145C1031.05 448.129 1015.17 415.8 985.155 403.949L977.933 401.107C977.384 400.891 976.985 400.392 976.902 399.794L975.82 392.115C969.347 345.824 936.15 307.545 891.239 294.613C880.49 291.522 869.424 289.943 858.358 289.943C833.432 289.943 808.555 298.104 788.304 312.897L778.886 319.778C778.203 320.277 777.272 320.194 776.706 319.579L768.635 311.152C762.146 304.37 753.942 299.417 744.907 296.807C740.065 295.411 735.089 294.696 730.097 294.696C706.502 294.696 685.435 310.537 678.896 333.225C677.565 337.829 676.866 342.599 676.816 347.403L676.699 358.157C676.699 358.938 676.134 359.62 675.368 359.769L664.802 361.897C632.42 368.413 606.645 392.115 597.51 423.745C589.356 452.019 595.829 482.336 614.865 504.875L620.772 511.872C621.222 512.404 621.288 513.152 620.955 513.751L616.513 521.762C614.216 525.901 612.403 530.272 611.105 534.76C606.479 550.8 608.376 567.671 616.446 582.281C624.533 596.891 637.812 607.496 653.869 612.116C664.436 615.158 675.601 615.358 686.218 612.731L694.937 610.571C695.586 610.404 696.285 610.654 696.684 611.202L701.959 618.466C715.787 637.514 735.056 651.027 757.686 657.543C767.188 660.285 776.972 661.665 786.756 661.665C806.608 661.665 826.027 655.997 842.933 645.293L856.129 636.932C856.395 636.766 856.711 636.666 857.027 636.666L856.977 636.716Z" fill="white"/>
<path d="M756.172 481.322L711.577 474.391L712.276 469.936C713.457 462.357 715.271 456.34 717.734 451.869C720.196 447.398 723.425 443.492 727.435 440.101C731.445 436.727 740.164 431.042 753.593 423.031C760.732 418.859 764.642 414.62 765.307 410.332C765.973 406.027 765.224 402.487 763.061 399.711C760.881 396.935 757.22 395.14 752.062 394.342C746.504 393.478 741.629 394.608 737.419 397.7C733.209 400.808 729.881 406.858 727.435 415.85L682.773 403.135C686.95 386.646 695.12 374.13 707.317 365.587C719.514 357.027 736.554 354.467 758.468 357.875C775.524 360.534 788.737 366.235 798.122 374.961C810.868 386.796 815.993 400.725 813.497 416.731C812.465 423.38 809.62 429.496 804.977 435.098C800.335 440.699 791.649 447.082 778.919 454.213C770.033 459.232 764.276 463.487 761.613 466.945C758.951 470.418 757.137 475.189 756.189 481.289L756.172 481.322ZM708.199 485.993L755.972 493.423L749.416 535.508L701.643 528.078L708.199 485.993Z" fill="white"/>
<path d="M869.99 546.545L845.229 526.516L847.243 524.039C850.654 519.834 853.899 516.792 856.994 514.947C860.072 513.102 863.45 511.856 867.094 511.208C870.739 510.559 878.093 510.177 889.126 510.061C894.966 510.044 898.86 508.847 900.79 506.454C902.721 504.06 903.519 501.634 903.187 499.174C902.854 496.714 901.24 494.32 898.378 491.993C895.299 489.5 891.921 488.453 888.244 488.852C884.566 489.251 880.39 491.76 875.714 496.398L852.967 472.812C861.37 464.235 870.805 459.482 881.288 458.584C891.772 457.686 903.087 462.158 915.251 471.997C924.719 479.66 930.759 487.821 933.388 496.481C936.966 508.216 935.152 518.538 927.93 527.43C924.935 531.12 921.025 533.846 916.216 535.624C911.39 537.403 903.836 538.217 893.519 538.068C886.314 537.985 881.288 538.533 878.426 539.713C875.564 540.893 872.769 543.171 870.023 546.545H869.99ZM839.056 532.4L865.58 553.858L846.627 577.228L820.103 555.77L839.056 532.4Z" fill="white"/>
<path d="M876.912 402.57L866.196 387.943L867.66 386.879C870.156 385.051 872.386 383.854 874.349 383.289C876.313 382.724 878.343 382.524 880.456 382.69C882.553 382.873 886.663 383.721 892.753 385.25C895.965 386.081 898.278 385.998 899.692 384.951C901.107 383.92 901.889 382.69 902.072 381.294C902.238 379.881 901.706 378.336 900.474 376.64C899.143 374.812 897.429 373.748 895.349 373.449C893.269 373.133 890.607 373.914 887.362 375.776L878.26 359.504C884.134 355.996 890.008 354.75 895.915 355.78C901.822 356.811 907.396 360.9 912.655 368.08C916.748 373.665 918.895 379.034 919.078 384.186C919.344 391.167 916.848 396.586 911.573 400.426C909.393 402.021 906.847 402.952 903.935 403.235C901.023 403.517 896.747 402.869 891.089 401.29C887.129 400.209 884.284 399.777 882.536 400.01C880.789 400.243 878.925 401.09 876.912 402.553V402.57ZM861.936 390.286L873.418 405.944L859.59 416.05L848.108 400.392L861.936 390.286Z" fill="white"/>
<path d="M463.558 609.956C449.796 609.956 435.952 606.199 423.688 598.886C406.799 588.83 394.868 573.255 390.824 556.019C377.113 555.038 364.483 548.307 356.063 537.469C349.956 529.624 346.479 520.283 345.963 510.376C342.352 507.916 339.157 504.925 336.461 501.484C323.332 484.613 324.98 460.928 340.205 446.068C333.866 419.042 343.866 390.702 365.814 373.665C383.037 360.301 404.968 355.597 426.168 360.7C428.63 355.082 432.474 350.162 437.333 346.389C445.137 340.322 454.855 337.663 464.673 338.893C474.49 340.123 483.243 345.093 489.3 352.905C491.13 355.248 492.661 357.825 493.892 360.551C513.91 357.276 533.962 365.088 546.425 381.128C557.574 395.456 560.935 414.238 555.477 431.541C557.657 433.403 559.637 435.464 561.368 437.691C575.528 455.891 572.234 482.22 553.996 496.365C548.438 500.686 541.849 503.528 534.893 504.642C531.266 518.205 523.495 529.923 512.363 538.55C498.319 549.453 480.331 554.008 462.792 551.149C462.609 567.288 466.37 589.179 484.458 604.836C484.824 605.152 484.973 605.634 484.874 606.099C484.774 606.565 484.424 606.947 483.958 607.08C477.302 609.008 470.413 609.956 463.508 609.956H463.558ZM409.295 361.299C394.269 361.299 379.609 366.252 367.395 375.726C346.063 392.298 336.445 419.956 342.901 446.184C343.018 446.633 342.868 447.115 342.535 447.448C327.792 461.343 326.061 483.882 338.508 499.888C341.154 503.296 344.332 506.221 347.926 508.581C348.276 508.814 348.492 509.196 348.509 509.629C348.875 519.219 352.203 528.294 358.093 535.89C366.264 546.395 378.594 552.811 391.923 553.493C392.505 553.526 393.004 553.941 393.137 554.523C396.815 571.427 408.429 586.785 425.02 596.658C442.125 606.831 462.376 609.906 480.98 605.202C463.125 588.514 459.797 565.876 460.23 549.57C460.23 549.188 460.413 548.822 460.712 548.589C461.012 548.356 461.395 548.257 461.777 548.323C479.066 551.564 496.921 547.259 510.782 536.505C521.665 528.045 529.219 516.526 532.597 503.163C532.73 502.647 533.163 502.265 533.679 502.199C540.484 501.268 546.957 498.542 552.399 494.32C569.488 481.056 572.583 456.373 559.304 439.303C557.507 436.993 555.427 434.882 553.131 432.987C552.715 432.638 552.548 432.073 552.715 431.574C558.273 414.87 555.144 396.619 544.345 382.74C532.264 367.216 512.712 359.769 493.31 363.31C492.694 363.426 492.095 363.094 491.862 362.529C490.681 359.653 489.117 356.96 487.22 354.517C481.579 347.27 473.442 342.633 464.323 341.502C455.204 340.356 446.169 342.832 438.914 348.467C434.122 352.19 430.378 357.127 428.115 362.745C427.865 363.36 427.199 363.675 426.584 363.526C420.843 362.047 415.036 361.332 409.278 361.332L409.295 361.299Z" fill="#E6E6E6"/>
<path d="M417.382 470.967L394.402 476.369L393.853 474.075C392.938 470.169 392.621 466.895 392.938 464.252C393.254 461.609 394.052 459.066 395.334 456.639C396.615 454.213 399.727 449.741 404.652 443.226C407.298 439.802 408.346 436.976 407.83 434.765C407.315 432.555 406.25 430.976 404.652 430.062C403.055 429.147 400.925 428.998 398.262 429.613C395.4 430.294 393.254 431.79 391.823 434.117C390.392 436.444 389.976 440.034 390.558 444.871L366.413 447.498C365.182 438.688 366.68 431.009 370.906 424.477C375.133 417.928 382.887 413.34 394.186 410.681C402.971 408.62 410.509 408.786 416.766 411.18C425.269 414.404 430.494 420.155 432.441 428.399C433.256 431.823 433.073 435.347 431.942 438.971C430.794 442.594 427.848 447.398 423.073 453.365C419.761 457.553 417.798 460.745 417.199 462.939C416.583 465.149 416.65 467.809 417.398 470.95L417.382 470.967ZM395.051 482.652L419.661 476.868L424.77 498.559L400.159 504.343L395.051 482.652Z" fill="#EBEBEB"/>
<path d="M475.888 422.482L459.93 417.645L460.413 416.05C461.245 413.34 462.21 411.229 463.341 409.734C464.473 408.221 465.854 406.958 467.501 405.927C469.149 404.897 472.627 403.268 477.951 401.041C480.78 399.877 482.428 398.531 482.893 397.002C483.359 395.472 483.276 394.126 482.627 392.996C481.978 391.865 480.73 391.018 478.883 390.469C476.903 389.871 475.056 390.02 473.359 390.935C471.661 391.849 470.131 393.893 468.766 397.051L453.091 390.087C455.471 384.269 459.115 380.114 464.007 377.621C468.916 375.128 475.272 375.061 483.11 377.438C489.217 379.283 493.743 382.059 496.721 385.749C500.765 390.735 501.913 396.087 500.182 401.822C499.467 404.199 498.102 406.293 496.122 408.105C494.142 409.916 490.631 411.795 485.606 413.756C482.095 415.136 479.765 416.382 478.617 417.512C477.469 418.643 476.554 420.305 475.888 422.482ZM458.116 421.701L475.206 426.887L470.63 441.946L453.54 436.76L458.116 421.701Z" fill="#EBEBEB"/>
<path d="M666 949C844.185 949 988.633 940.576 988.633 930.185C988.633 919.793 844.185 911.369 666 911.369C487.815 911.369 343.367 919.793 343.367 930.185C343.367 940.576 487.815 949 666 949Z" fill="#F5F5F5"/>
<path d="M512.263 649.614L510.732 648.966C512.113 645.725 512.895 643.016 513.145 640.722L514.792 640.905C514.526 643.365 513.694 646.207 512.246 649.614H512.263ZM511.614 630.583C508.386 623.502 502.379 619.031 494.259 617.668L494.541 616.022C503.244 617.485 509.667 622.289 513.128 629.901L511.614 630.583Z" fill="#407BFF"/>
<path d="M502.895 666.336L486.521 673.782L485.772 672.153C484.508 669.377 483.792 666.967 483.626 664.939C483.459 662.912 483.692 660.9 484.275 658.906C484.874 656.911 486.521 653.105 489.25 647.503C490.714 644.545 491.08 642.284 490.365 640.705C489.649 639.126 488.618 638.112 487.286 637.664C485.955 637.215 484.341 637.414 482.444 638.279C480.397 639.209 479.033 640.655 478.301 642.6C477.585 644.561 477.802 647.304 478.95 650.828L461.295 656.363C459.065 649.963 459.048 644.013 461.245 638.495C463.425 632.976 468.55 628.389 476.587 624.732C482.844 621.89 488.501 620.892 493.543 621.757C500.382 622.904 505.141 626.427 507.82 632.311C508.935 634.755 509.334 637.414 509.018 640.29C508.702 643.165 507.205 647.188 504.525 652.357C502.678 655.964 501.68 658.64 501.547 660.385C501.414 662.13 501.863 664.108 502.878 666.352L502.895 666.336ZM487.952 678.386L505.491 670.408L512.529 685.849L494.991 693.827L487.952 678.386Z" fill="#407BFF"/>
<path d="M462.393 703.285L454.056 714.571L452.925 713.74C450.995 712.327 449.597 710.964 448.715 709.634C447.833 708.321 447.217 706.859 446.868 705.263C446.518 703.667 446.202 700.443 445.919 695.606C445.786 693.03 445.187 691.351 444.089 690.553C442.991 689.755 441.909 689.456 440.828 689.639C439.746 689.838 438.731 690.586 437.766 691.899C436.734 693.312 436.335 694.808 436.584 696.42C436.834 698.033 438.032 699.811 440.162 701.772L430.228 712.261C426.268 708.737 423.988 704.681 423.389 700.094C422.773 695.506 424.52 690.437 428.614 684.885C431.792 680.564 435.27 677.738 439.03 676.408C444.122 674.596 448.715 675.195 452.775 678.187C454.456 679.433 455.737 681.095 456.619 683.173C457.501 685.251 458.017 688.575 458.15 693.096C458.266 696.271 458.599 698.465 459.181 699.695C459.764 700.925 460.812 702.105 462.36 703.252L462.393 703.285ZM456.785 717.181L465.704 705.08L476.387 712.942L467.468 725.043L456.785 717.181Z" fill="#407BFF"/>
<path d="M639.526 924.201C636.83 924.201 634.218 922.738 632.886 920.178C626.197 907.28 617.794 892.138 602.685 875.749C600.921 873.838 600.272 871.128 601.004 868.635C606.612 849.172 615.431 822.561 615.514 822.295C616.812 818.389 621.039 816.261 624.949 817.558C628.86 818.854 630.989 823.076 629.691 826.982C629.608 827.231 622.02 850.152 616.513 868.801C630.407 884.542 638.977 899.485 646.165 913.33C648.062 916.987 646.631 921.491 642.97 923.37C641.872 923.935 640.707 924.201 639.542 924.201H639.526Z" fill="#407BFF"/>
<path d="M651.956 930.185H594.065L624.749 912.798L650.458 913.796L651.956 930.185Z" fill="#263238"/>
<path d="M683.339 815.829C683.539 838.983 661.624 859.926 634.417 862.585C607.194 865.244 584.963 848.64 584.764 825.469C584.564 802.316 606.479 781.373 633.685 778.713C660.908 776.054 683.139 792.659 683.339 815.829Z" fill="#263238"/>
<path d="M502.346 793.456C499.417 793.456 496.638 791.728 495.44 788.852C493.859 785.046 495.673 780.691 499.484 779.112C503.827 777.317 504.426 772.896 504.426 772.846C504.742 769.522 507.238 766.796 510.533 766.197C512.313 765.881 514.027 765.366 516.024 764.801C526.141 761.842 538.654 758.186 578.108 769.222C617.012 747.481 617.461 706.726 617.461 704.964C617.461 700.858 620.789 697.501 624.899 697.501H624.933C629.026 697.501 632.371 700.792 632.387 704.897C632.387 707.058 632.154 758.219 582.401 783.849C580.703 784.73 578.74 784.913 576.91 784.381C539.32 773.527 528.72 776.619 520.217 779.112C519.468 779.328 518.703 779.561 517.921 779.777C516.074 784.514 512.246 789.983 505.208 792.891C504.276 793.274 503.311 793.456 502.362 793.456H502.346Z" fill="#263238"/>
<path d="M589.589 740.118C575.428 683.904 537.706 538.899 658.595 530.04C767.055 522.095 796.824 666.286 804.045 716.25C808.255 745.371 809.686 771.765 809.919 792.409C810.235 819.02 791.516 841.974 765.391 847.277C706.302 859.261 650.375 860.973 612.719 846.13C602.535 842.107 596.378 831.752 597.36 820.865C598.808 804.709 598.841 776.935 589.572 740.151L589.589 740.118Z" fill="#407BFF"/>
<path opacity="0.1" d="M804.046 716.233C797.223 669.161 770.399 538.317 676.483 530.139C665.551 529.192 654.768 534.561 649.743 544.301C645.55 552.412 645.683 562.235 651.956 571.959C672.656 604.022 722.027 714.837 714.572 775.223C711.178 802.698 693.922 824.638 708.931 855.521C727.052 854.025 746.055 851.216 765.407 847.277C791.532 841.991 810.252 819.037 809.936 792.409C809.686 771.782 808.272 745.371 804.046 716.25V716.233Z" fill="black"/>
<path d="M787.871 793.141C787.455 793.141 787.123 792.808 787.123 792.409C786.823 766.729 784.843 741.132 781.249 716.35C763.277 592.27 714.888 529.508 641.306 534.926C640.907 534.976 640.541 534.644 640.508 534.245C640.474 533.829 640.79 533.48 641.19 533.447C715.654 527.962 764.609 591.157 782.713 716.15C786.307 740.999 788.287 766.663 788.604 792.409C788.604 792.825 788.271 793.157 787.871 793.157V793.141Z" fill="#263238"/>
<path d="M823.647 819.801C823.847 842.955 801.932 863.898 774.726 866.558C747.503 869.217 725.272 852.612 725.072 829.442C724.872 806.272 746.787 785.345 773.994 782.686C801.217 780.026 823.448 796.631 823.647 819.801Z" fill="#263238"/>
<path d="M791.299 924.201C788.603 924.201 785.991 922.738 784.66 920.178C777.971 907.28 769.567 892.138 754.458 875.749C752.694 873.838 752.045 871.128 752.778 868.635C758.385 849.172 767.204 822.561 767.288 822.295C768.586 818.389 772.796 816.261 776.723 817.558C780.633 818.854 782.763 823.076 781.465 826.982C781.382 827.231 773.794 850.152 768.286 868.801C782.18 884.542 790.75 899.485 797.939 913.33C799.836 916.987 798.404 921.491 794.744 923.37C793.645 923.935 792.481 924.201 791.316 924.201H791.299Z" fill="#407BFF"/>
<path d="M775.624 696.936C772.945 696.936 770.349 695.49 769.002 692.947C767.088 689.306 768.486 684.802 772.13 682.891C773.561 682.126 806.059 664.391 815.194 621.773C793.529 612.715 754.591 592.287 746.072 582.015C745.24 581.018 744.691 579.821 744.474 578.558C744.275 577.444 742.877 568.618 746.138 560.274L742.211 552.695C740.314 549.038 741.745 544.534 745.406 542.639C749.067 540.744 753.576 542.173 755.473 545.83L761.131 556.734C762.346 559.061 762.229 561.853 760.848 564.097C759.067 566.972 758.835 571.178 758.984 573.92C768.569 582.58 807.307 603.074 826.26 610.105C829.588 611.335 831.585 614.743 831.035 618.233C822.599 672.702 780.883 695.141 779.102 696.071C778.004 696.653 776.806 696.919 775.641 696.919L775.624 696.936Z" fill="#263238"/>
<path d="M751.813 580.984C751.114 580.984 750.398 580.785 749.766 580.369C748.035 579.239 747.553 576.929 748.684 575.217C748.934 574.818 755.107 565.526 764.492 563.017C766.472 562.485 768.536 563.665 769.068 565.659C769.601 567.654 768.419 569.698 766.422 570.23C759.866 571.992 754.974 579.239 754.924 579.306C754.209 580.403 753.011 581.001 751.796 581.001L751.813 580.984Z" fill="#263238"/>
<path d="M803.729 930.185H745.839L776.523 912.798L802.232 913.796L803.729 930.185Z" fill="#263238"/>
<path d="M682.51 707.473C704.407 705.536 720.743 688.006 718.998 668.319C717.253 648.632 698.087 634.243 676.19 636.18C654.293 638.116 637.957 655.646 639.702 675.333C641.447 695.02 660.613 709.409 682.51 707.473Z" fill="white"/>
<path d="M680.144 672.352C683.156 682.907 680.893 692.814 675.069 694.459C669.261 696.105 662.106 688.891 659.094 678.336C656.083 667.782 658.346 657.875 664.17 656.23C669.994 654.584 677.132 661.798 680.144 672.352Z" fill="#263238"/>
<path d="M634.051 678.569C659.178 675.344 708.948 661.166 717.151 655.448C710.678 636.567 680.61 620.41 653.703 629.502C629.459 637.697 634.051 678.552 634.051 678.552V678.569Z" fill="#263238"/>
<path d="M638.927 690.703C670.11 684.785 710.662 674.846 722.26 668.463C721.544 688.791 715.637 709.385 683.788 716.333C657.763 722.017 638.91 690.686 638.91 690.686L638.927 690.703Z" fill="#263238"/>
<path d="M622.719 688.791C623.651 704.698 612.519 715.618 597.826 713.191C583.15 710.765 570.486 695.905 569.538 679.998C568.606 664.092 579.738 653.171 594.431 655.598C609.108 658.025 621.771 672.884 622.719 688.791Z" fill="white"/>
<path d="M596.678 684.918C598.575 693.827 596.944 701.257 593.034 701.507C589.123 701.772 584.414 694.758 582.534 685.849C580.637 676.94 582.268 669.51 586.178 669.261C590.088 668.995 594.797 676.009 596.678 684.918Z" fill="#263238"/>
<path d="M565.744 681.511C582.6 683.506 616.08 681.278 621.638 678.237C617.528 662.114 597.593 643.88 579.472 646.207C563.148 648.318 565.744 681.494 565.744 681.494V681.511Z" fill="#263238"/>
<path d="M568.872 691.999C589.822 692.946 617.078 692.415 624.916 689.473C624.2 705.446 620.007 720.671 598.608 720.422C581.119 720.222 568.872 691.999 568.872 691.999Z" fill="#263238"/>
<path d="M689.446 619.463C658.013 619.463 637.13 603.955 636.098 603.174C632.82 600.681 632.171 596.01 634.667 592.719C637.146 589.445 641.822 588.796 645.1 591.273C645.466 591.539 670.276 609.623 704.738 603.091C708.798 602.326 712.692 604.986 713.457 609.025C714.223 613.064 711.56 616.97 707.517 617.734C701.177 618.931 695.137 619.446 689.446 619.446V619.463Z" fill="#263238"/>
<path d="M555.976 606.615C555.144 606.615 554.279 606.482 553.447 606.182C549.57 604.786 547.557 600.515 548.954 596.642C552.915 585.638 559.471 578.491 568.456 575.416C584.747 569.815 602.285 580.702 603.018 581.167C606.495 583.361 607.544 587.965 605.347 591.456C603.151 594.93 598.558 595.977 595.064 593.783C591.669 591.672 581.136 586.785 573.265 589.528C568.739 591.107 565.378 595.079 562.998 601.678C561.9 604.72 559.038 606.615 555.976 606.615Z" fill="#263238"/>
<path d="M614.799 732.406C614.599 732.406 614.383 732.373 614.183 732.323C613.002 731.974 612.319 730.777 612.652 729.597C612.702 729.397 614.116 724.561 620.24 721.402C628.81 716.998 641.855 717.912 659.028 724.112C660.193 724.527 660.792 725.824 660.376 726.971C659.96 728.134 658.678 728.733 657.514 728.317C637.828 721.186 627.595 722.732 622.486 725.275C618.027 727.502 617.012 730.677 616.962 730.81C616.662 731.774 615.78 732.406 614.815 732.406H614.799Z" fill="#263238"/>
<path d="M544.328 724.211C500.898 728.101 469.798 746.069 469.798 746.069C482.66 743.642 528.637 800.471 540.451 844.285C562.25 836.207 587.675 830.705 614.799 826.417C598.375 781.24 568.34 730.079 544.328 724.211Z" fill="#407BFF"/>
<path opacity="0.6" d="M544.328 724.211C500.898 728.101 469.798 746.069 469.798 746.069C482.66 743.642 528.637 800.471 540.451 844.285C562.25 836.207 587.675 830.705 614.799 826.417C598.375 781.24 568.34 730.079 544.328 724.211Z" fill="white"/>
<path d="M544.328 724.211C515.907 721.003 469.765 744.772 469.765 744.772C461.594 749.975 463.807 759.748 468.267 763.87C472.543 757.737 520.234 741.78 538.172 739.636C529.252 731.392 537.539 725.408 544.328 724.211Z" fill="#407BFF"/>
<path opacity="0.2" d="M544.328 724.211C515.907 721.003 469.765 744.772 469.765 744.772C461.594 749.975 463.807 759.748 468.267 763.87C472.543 757.737 520.234 741.78 538.172 739.636C529.252 731.392 537.539 725.408 544.328 724.211Z" fill="white"/>
<path d="M502.362 793.456C499.916 793.456 497.537 792.26 496.106 790.066C490.698 781.788 494.076 769.139 494.808 766.696C495.989 762.757 500.149 760.513 504.093 761.693C508.037 762.873 510.283 767.012 509.118 770.951C507.903 775.123 507.654 780.458 508.619 781.921C510.865 785.362 509.9 789.983 506.439 792.243C505.174 793.058 503.76 793.456 502.362 793.456Z" fill="#263238"/>
</g>
<path d="M575.497 219.48C573.444 219.48 571.644 219.12 570.097 218.4C568.577 217.653 567.391 216.613 566.537 215.28C565.684 213.947 565.244 212.387 565.217 210.6H569.417C569.444 211.613 569.671 212.547 570.097 213.4C570.551 214.227 571.231 214.893 572.137 215.4C573.044 215.88 574.164 216.12 575.497 216.12C576.591 216.12 577.551 215.96 578.377 215.64C579.204 215.32 579.844 214.853 580.297 214.24C580.777 213.6 581.017 212.8 581.017 211.84C581.017 210.88 580.791 210.08 580.337 209.44C579.911 208.8 579.311 208.267 578.537 207.84C577.764 207.413 576.911 207.04 575.977 206.72C575.044 206.4 574.084 206.067 573.097 205.72C570.724 204.893 568.951 203.88 567.777 202.68C566.631 201.453 566.057 199.907 566.057 198.04C566.057 196.573 566.431 195.28 567.177 194.16C567.924 193.013 568.977 192.12 570.337 191.48C571.697 190.84 573.284 190.52 575.097 190.52C576.911 190.52 578.497 190.853 579.857 191.52C581.217 192.187 582.284 193.107 583.057 194.28C583.831 195.453 584.217 196.827 584.217 198.4H580.017C579.991 197.493 579.777 196.707 579.377 196.04C578.977 195.347 578.404 194.8 577.657 194.4C576.911 194 575.977 193.8 574.857 193.8C573.977 193.8 573.177 193.933 572.457 194.2C571.737 194.467 571.164 194.893 570.737 195.48C570.337 196.04 570.137 196.787 570.137 197.72C570.137 198.493 570.297 199.147 570.617 199.68C570.964 200.213 571.457 200.68 572.097 201.08C572.764 201.453 573.564 201.827 574.497 202.2C575.431 202.547 576.497 202.947 577.697 203.4C579.084 203.88 580.324 204.453 581.417 205.12C582.537 205.76 583.417 206.587 584.057 207.6C584.724 208.587 585.057 209.867 585.057 211.44C585.057 212.827 584.697 214.133 583.977 215.36C583.257 216.587 582.191 217.587 580.777 218.36C579.364 219.107 577.604 219.48 575.497 219.48ZM596.413 219.48C594.466 219.48 592.746 219.053 591.253 218.2C589.76 217.32 588.586 216.107 587.733 214.56C586.88 213.013 586.453 211.2 586.453 209.12C586.453 207.04 586.866 205.227 587.693 203.68C588.546 202.107 589.72 200.88 591.213 200C592.733 199.12 594.48 198.68 596.453 198.68C598.426 198.68 600.12 199.12 601.533 200C602.946 200.853 604.04 201.987 604.813 203.4C605.613 204.813 606.013 206.387 606.013 208.12C606.013 208.387 606.013 208.68 606.013 209C606.013 209.32 605.986 209.653 605.933 210H589.373V207.2H602.013C601.933 205.493 601.373 204.173 600.333 203.24C599.293 202.28 597.986 201.8 596.413 201.8C595.346 201.8 594.346 202.04 593.413 202.52C592.506 203 591.773 203.72 591.213 204.68C590.653 205.64 590.373 206.853 590.373 208.32V209.44C590.373 210.907 590.653 212.147 591.213 213.16C591.773 214.147 592.506 214.893 593.413 215.4C594.346 215.907 595.333 216.16 596.373 216.16C597.653 216.16 598.706 215.88 599.533 215.32C600.386 214.733 601.013 213.947 601.413 212.96H605.453C605.08 214.213 604.48 215.333 603.653 216.32C602.826 217.28 601.8 218.053 600.573 218.64C599.373 219.2 597.986 219.48 596.413 219.48ZM607.82 219V199.16H611.3L611.66 203.48H611.82C612.46 202.067 613.1 201.027 613.74 200.36C614.407 199.667 615.167 199.213 616.02 199C616.9 198.787 617.94 198.68 619.14 198.68V202.88H618.1C617.06 202.88 616.14 203.013 615.34 203.28C614.567 203.52 613.914 203.893 613.38 204.4C612.874 204.907 612.487 205.56 612.22 206.36C611.954 207.133 611.82 208.053 611.82 209.12V219H607.82ZM625.825 219L618.945 199.16H623.145L628.505 216.04H628.705L634.105 199.16H638.225L631.305 219H625.825ZM648.598 219.48C646.651 219.48 644.931 219.053 643.438 218.2C641.944 217.32 640.771 216.107 639.918 214.56C639.064 213.013 638.638 211.2 638.638 209.12C638.638 207.04 639.051 205.227 639.878 203.68C640.731 202.107 641.904 200.88 643.398 200C644.918 199.12 646.664 198.68 648.638 198.68C650.611 198.68 652.304 199.12 653.718 200C655.131 200.853 656.224 201.987 656.998 203.4C657.798 204.813 658.198 206.387 658.198 208.12C658.198 208.387 658.198 208.68 658.198 209C658.198 209.32 658.171 209.653 658.118 210H641.558V207.2H654.198C654.118 205.493 653.558 204.173 652.518 203.24C651.478 202.28 650.171 201.8 648.598 201.8C647.531 201.8 646.531 202.04 645.598 202.52C644.691 203 643.958 203.72 643.398 204.68C642.838 205.64 642.558 206.853 642.558 208.32V209.44C642.558 210.907 642.838 212.147 643.398 213.16C643.958 214.147 644.691 214.893 645.598 215.4C646.531 215.907 647.518 216.16 648.558 216.16C649.838 216.16 650.891 215.88 651.718 215.32C652.571 214.733 653.198 213.947 653.598 212.96H657.638C657.264 214.213 656.664 215.333 655.838 216.32C655.011 217.28 653.984 218.053 652.758 218.64C651.558 219.2 650.171 219.48 648.598 219.48ZM660.005 219V199.16H663.485L663.845 203.48H664.005C664.645 202.067 665.285 201.027 665.925 200.36C666.591 199.667 667.351 199.213 668.205 199C669.085 198.787 670.125 198.68 671.325 198.68V202.88H670.285C669.245 202.88 668.325 203.013 667.525 203.28C666.751 203.52 666.098 203.893 665.565 204.4C665.058 204.907 664.671 205.56 664.405 206.36C664.138 207.133 664.005 208.053 664.005 209.12V219H660.005ZM680.138 219V191H697.818V194.28H684.138V203.24H696.618V206.44H684.138V215.72H697.818V219H680.138ZM700.002 219V199.16H703.482L703.842 203.48H704.002C704.642 202.067 705.282 201.027 705.922 200.36C706.588 199.667 707.348 199.213 708.202 199C709.082 198.787 710.122 198.68 711.322 198.68V202.88H710.282C709.242 202.88 708.322 203.013 707.522 203.28C706.748 203.52 706.095 203.893 705.562 204.4C705.055 204.907 704.668 205.56 704.402 206.36C704.135 207.133 704.002 208.053 704.002 209.12V219H700.002ZM712.527 219V199.16H716.007L716.367 203.48H716.527C717.167 202.067 717.807 201.027 718.447 200.36C719.113 199.667 719.873 199.213 720.727 199C721.607 198.787 722.647 198.68 723.847 198.68V202.88H722.807C721.767 202.88 720.847 203.013 720.047 203.28C719.273 203.52 718.62 203.893 718.087 204.4C717.58 204.907 717.193 205.56 716.927 206.36C716.66 207.133 716.527 208.053 716.527 209.12V219H712.527ZM733.826 219.48C731.959 219.48 730.266 219.053 728.746 218.2C727.252 217.32 726.066 216.107 725.186 214.56C724.306 212.987 723.866 211.16 723.866 209.08C723.866 207 724.306 205.187 725.186 203.64C726.092 202.067 727.292 200.853 728.786 200C730.306 199.12 732.012 198.68 733.906 198.68C735.799 198.68 737.492 199.12 738.986 200C740.506 200.853 741.692 202.067 742.546 203.64C743.426 205.187 743.866 207 743.866 209.08C743.866 211.16 743.426 212.987 742.546 214.56C741.666 216.107 740.466 217.32 738.946 218.2C737.426 219.053 735.719 219.48 733.826 219.48ZM733.826 216.28C734.892 216.28 735.866 216.013 736.746 215.48C737.652 214.947 738.386 214.16 738.946 213.12C739.506 212.053 739.786 210.707 739.786 209.08C739.786 207.453 739.506 206.107 738.946 205.04C738.412 203.973 737.692 203.187 736.786 202.68C735.906 202.147 734.946 201.88 733.906 201.88C732.866 201.88 731.892 202.147 730.986 202.68C730.079 203.187 729.346 203.973 728.786 205.04C728.226 206.107 727.946 207.453 727.946 209.08C727.946 210.707 728.226 212.053 728.786 213.12C729.346 214.16 730.066 214.947 730.946 215.48C731.852 216.013 732.812 216.28 733.826 216.28ZM745.858 219V199.16H749.338L749.698 203.48H749.858C750.498 202.067 751.138 201.027 751.778 200.36C752.444 199.667 753.204 199.213 754.058 199C754.938 198.787 755.978 198.68 757.178 198.68V202.88H756.138C755.098 202.88 754.178 203.013 753.378 203.28C752.604 203.52 751.951 203.893 751.418 204.4C750.911 204.907 750.524 205.56 750.258 206.36C749.991 207.133 749.858 208.053 749.858 209.12V219H745.858Z" fill="#BFBFBF"/>
<path d="M445.432 342V274.8H490.456V286.416H459.832V302.256H487.576V313.392H459.832V330.384H490.456V342H445.432ZM500.238 342V293.616H513.006L514.35 302.448C515.63 300.4 517.134 298.64 518.862 297.168C520.59 295.696 522.574 294.544 524.814 293.712C527.118 292.88 529.582 292.464 532.206 292.464V307.728H527.406C525.486 307.728 523.726 307.952 522.126 308.4C520.59 308.784 519.246 309.456 518.094 310.416C517.006 311.376 516.142 312.688 515.502 314.352C514.926 315.952 514.638 317.968 514.638 320.4V342H500.238ZM539.11 342V293.616H551.878L553.222 302.448C554.502 300.4 556.006 298.64 557.734 297.168C559.462 295.696 561.446 294.544 563.686 293.712C565.99 292.88 568.454 292.464 571.078 292.464V307.728H566.278C564.358 307.728 562.598 307.952 560.998 308.4C559.462 308.784 558.118 309.456 556.966 310.416C555.878 311.376 555.014 312.688 554.374 314.352C553.798 315.952 553.51 317.968 553.51 320.4V342H539.11ZM600.839 343.152C596.167 343.152 591.975 342.064 588.263 339.888C584.551 337.712 581.607 334.736 579.431 330.96C577.255 327.12 576.167 322.768 576.167 317.904C576.167 312.912 577.255 308.528 579.431 304.752C581.607 300.912 584.551 297.904 588.263 295.728C592.039 293.552 596.231 292.464 600.839 292.464C605.575 292.464 609.799 293.552 613.511 295.728C617.223 297.904 620.167 300.912 622.343 304.752C624.519 308.528 625.607 312.88 625.607 317.808C625.607 322.736 624.519 327.12 622.343 330.96C620.167 334.736 617.223 337.712 613.511 339.888C609.799 342.064 605.575 343.152 600.839 343.152ZM600.839 330.672C602.759 330.672 604.455 330.192 605.927 329.232C607.463 328.272 608.679 326.832 609.575 324.912C610.471 322.992 610.919 320.624 610.919 317.808C610.919 314.992 610.471 312.624 609.575 310.704C608.679 308.784 607.495 307.344 606.023 306.384C604.551 305.424 602.855 304.944 600.935 304.944C599.015 304.944 597.287 305.424 595.751 306.384C594.279 307.344 593.095 308.784 592.199 310.704C591.303 312.624 590.855 314.992 590.855 317.808C590.855 320.624 591.303 322.992 592.199 324.912C593.095 326.832 594.279 328.272 595.751 329.232C597.287 330.192 598.983 330.672 600.839 330.672ZM635.23 342V293.616H647.998L649.342 302.448C650.622 300.4 652.126 298.64 653.854 297.168C655.582 295.696 657.566 294.544 659.806 293.712C662.11 292.88 664.574 292.464 667.198 292.464V307.728H662.398C660.478 307.728 658.718 307.952 657.118 308.4C655.582 308.784 654.238 309.456 653.086 310.416C651.998 311.376 651.134 312.688 650.494 314.352C649.918 315.952 649.63 317.968 649.63 320.4V342H635.23ZM718.991 343.152C713.935 343.152 709.615 342.288 706.031 340.56C702.447 338.768 699.663 336.368 697.679 333.36C695.695 330.288 694.575 326.832 694.319 322.992H708.335C708.719 325.168 709.871 327.056 711.791 328.656C713.775 330.192 716.175 330.96 718.991 330.96C721.039 330.96 722.831 330.448 724.367 329.424C725.967 328.336 727.183 326.896 728.015 325.104C728.911 323.248 729.359 321.2 729.359 318.96C729.359 316.592 728.911 314.576 728.015 312.912C727.119 311.184 725.903 309.904 724.367 309.072C722.831 308.176 721.071 307.728 719.087 307.728C716.719 307.728 714.639 308.336 712.847 309.552C711.055 310.704 709.775 312.112 709.007 313.776H695.087L700.655 274.8H739.055V287.376H711.311L708.815 300.624C710.159 299.28 711.951 298.192 714.191 297.36C716.495 296.528 719.023 296.112 721.775 296.112C725.487 296.112 728.687 296.752 731.375 298.032C734.063 299.248 736.303 300.944 738.095 303.12C739.887 305.296 741.199 307.728 742.031 310.416C742.863 313.104 743.279 315.888 743.279 318.768C743.279 322.416 742.671 325.744 741.455 328.752C740.239 331.696 738.543 334.256 736.367 336.432C734.191 338.544 731.599 340.208 728.591 341.424C725.647 342.576 722.447 343.152 718.991 343.152ZM780.719 343.152C774.511 343.152 769.199 341.68 764.783 338.736C760.367 335.792 756.943 331.728 754.511 326.544C752.143 321.296 750.959 315.248 750.959 308.4C750.959 301.552 752.143 295.536 754.511 290.352C756.943 285.104 760.367 281.008 764.783 278.064C769.199 275.12 774.511 273.648 780.719 273.648C786.927 273.648 792.239 275.12 796.655 278.064C801.071 281.008 804.463 285.104 806.831 290.352C809.263 295.536 810.479 301.552 810.479 308.4C810.479 315.248 809.263 321.296 806.831 326.544C804.463 331.728 801.071 335.792 796.655 338.736C792.239 341.68 786.927 343.152 780.719 343.152ZM780.719 330.192C783.727 330.192 786.351 329.296 788.591 327.504C790.895 325.712 792.655 323.216 793.871 320.016C795.151 316.752 795.791 312.88 795.791 308.4C795.791 303.92 795.151 300.08 793.871 296.88C792.655 293.616 790.895 291.12 788.591 289.392C786.351 287.6 783.727 286.704 780.719 286.704C777.711 286.704 775.055 287.6 772.751 289.392C770.511 291.12 768.751 293.616 767.471 296.88C766.255 300.08 765.647 303.92 765.647 308.4C765.647 312.88 766.255 316.752 767.471 320.016C768.751 323.216 770.511 325.712 772.751 327.504C775.055 329.296 777.711 330.192 780.719 330.192ZM847.435 343.152C841.227 343.152 835.915 341.68 831.499 338.736C827.083 335.792 823.659 331.728 821.227 326.544C818.859 321.296 817.675 315.248 817.675 308.4C817.675 301.552 818.859 295.536 821.227 290.352C823.659 285.104 827.083 281.008 831.499 278.064C835.915 275.12 841.227 273.648 847.435 273.648C853.643 273.648 858.955 275.12 863.371 278.064C867.787 281.008 871.179 285.104 873.547 290.352C875.979 295.536 877.195 301.552 877.195 308.4C877.195 315.248 875.979 321.296 873.547 326.544C871.179 331.728 867.787 335.792 863.371 338.736C858.955 341.68 853.643 343.152 847.435 343.152ZM847.435 330.192C850.443 330.192 853.067 329.296 855.307 327.504C857.611 325.712 859.371 323.216 860.587 320.016C861.867 316.752 862.507 312.88 862.507 308.4C862.507 303.92 861.867 300.08 860.587 296.88C859.371 293.616 857.611 291.12 855.307 289.392C853.067 287.6 850.443 286.704 847.435 286.704C844.427 286.704 841.771 287.6 839.467 289.392C837.227 291.12 835.467 293.616 834.187 296.88C832.971 300.08 832.363 303.92 832.363 308.4C832.363 312.88 832.971 316.752 834.187 320.016C835.467 323.216 837.227 325.712 839.467 327.504C841.771 329.296 844.427 330.192 847.435 330.192Z" fill="#002B56"/>
<defs>
<clipPath id="clip0_5831_32627">
<rect width="832" height="674" fill="white" transform="translate(250 275)"/>
</clipPath>
</defs>
</svg>
